<svg width="363" height="289" viewBox="0 0 363 289" fill="none" xmlns="http://www.w3.org/2000/svg">
<path d="M1 287C1 232.124 1.75367 168.855 47.0069 124.159C68.2738 103.153 91.7775 83.2055 120.792 69.7728C143.889 59.0793 164.982 50.6604 190.622 45.1095C200.384 42.996 211.063 38.7525 218.593 33.2521C223.572 29.6147 232.999 28.9036 239.426 27.3234C261.291 21.9472 285.662 23.149 306.941 16.6517C319.105 12.9378 332.423 11.9043 344.943 8.82587C355.521 6.22504 365.179 1 376 1" stroke="white" stroke-opacity="0.5" stroke-linecap="round" stroke-linejoin="round"/>
<path d="M104.843 289C84.6151 260.202 88.9576 222.345 102.53 192.071C113.43 167.759 131.47 146.436 148.78 125.008C157.16 114.636 171.346 110.113 182.023 101.682C191.294 94.3612 202.066 88.3039 212.374 81.981C229.796 71.2948 247.257 61.0561 268.067 54.9511C282.289 50.7789 296.874 45.9153 311.716 43.6033C319.188 42.4393 327.72 40.142 334.937 38.2446C345.76 35.3994 354.848 30.7677 365 28" stroke="white" stroke-opacity="0.5" stroke-linecap="round" stroke-linejoin="round"/>
<path d="M199.149 288C195.159 279.606 194.669 271.807 192.315 263.109C191.325 259.452 189.453 255.68 188.85 251.967C188.356 248.924 187.194 245.455 187.021 242.484C186.581 234.883 193.061 230.216 197.031 223.994C201.538 216.93 206.225 208.295 212.238 201.947C216.047 197.927 217.594 193.503 221.863 189.383C232.076 179.527 232.537 171.684 237.263 159.83C239.395 154.481 247.309 150.225 251.315 145.527C257.439 138.345 263.448 131.067 269.313 123.717C274.292 117.478 279.251 111.139 284.617 105.148C290.789 98.256 296.863 92.9414 304.251 87.2892C312.119 81.27 328.187 71.8012 339.382 71.8012C348.195 71.8012 358.396 64.9171 362 59" stroke="white" stroke-opacity="0.5" stroke-linecap="round" stroke-linejoin="round"/>
</svg>
