<svg width="360" height="342" viewBox="0 0 360 342" fill="none" xmlns="http://www.w3.org/2000/svg">
<g opacity="0.75">
<path d="M196.502 95.2434C214.809 95.2434 229.65 78.9065 229.65 58.754C229.65 38.6014 214.809 22.2645 196.502 22.2645C178.195 22.2645 163.354 38.6014 163.354 58.754C163.354 78.9065 178.195 95.2434 196.502 95.2434Z" fill="#A0616A"/>
<path d="M171.761 76.9987C171.761 76.9987 178.006 128.824 168.398 134.641C158.79 140.458 225.567 140.987 225.567 140.987C225.567 140.987 210.674 96.0366 217.4 82.287L171.761 76.9987Z" fill="#A0616A"/>
<path d="M274.327 141.25L268.774 169.087L257.031 227.982L256.68 231.208L252.627 268.548L249.931 293.353L248.124 310.016C237.134 316.233 229.169 320.526 229.169 320.526C229.169 320.526 228.484 316.745 227.379 311.906C219.667 314.452 205.395 318.675 193.301 319.518C197.705 324.922 199.729 329.998 196.984 333.745C188.698 345.039 154.494 321.379 142.53 312.557C142.252 314.669 142.146 316.805 142.215 318.938L133.059 311.187L133.965 293.353L135.494 263.179L137.414 225.337C136.808 223.717 136.301 222.055 135.895 220.36C133.091 209.384 129.688 187.467 127.078 169.087C124.977 154.295 123.399 141.795 123.066 139.136C123.021 138.788 122.998 138.61 122.998 138.61L173.679 113.958C177.28 123.153 194.099 125.917 194.099 125.917C208.032 124.86 218.954 116.771 218.954 116.771L274.327 141.25Z" fill="#D0CDE1"/>
<path d="M233.014 309.951C233.014 309.951 230.868 310.76 227.379 311.907C219.666 314.452 205.395 318.675 193.301 319.518C182.888 320.253 174.089 318.486 172.48 311.008C171.79 307.793 172.768 305.148 174.9 302.975C181.265 296.479 197.89 294.152 211.075 293.353C214.798 293.13 218.242 293.026 221.109 292.986C225.977 292.917 229.169 293.026 229.169 293.026L229.245 293.353L233.014 309.951Z" fill="#A0616A"/>
<path d="M168.926 24.2383L162.728 21.5069C162.728 21.5069 175.687 5.80144 193.717 7.16719L188.646 1.02151C188.646 1.02151 201.042 -4.44121 212.311 9.89851C218.235 17.4366 225.089 26.2972 229.361 36.2786H235.999L233.229 42.9932L242.924 49.7078L232.973 48.5018C233.566 52.1788 233.657 55.9326 233.243 59.6392C232.816 63.3469 231.097 66.7271 228.449 69.0662V69.0662C228.449 69.0662 220.762 51.5521 220.762 48.8207V55.6492C220.762 55.6492 214.565 49.5036 214.565 45.4065L211.184 50.1864L209.494 42.6751L188.646 50.1864L192.027 44.0409L179.068 46.0894L184.139 38.578C184.139 38.578 169.489 47.455 168.926 54.9664C168.362 62.4776 164.074 69.595 164.074 69.595C164.074 69.595 152.586 34.481 168.926 24.2383Z" fill="#2F2E41"/>
<path d="M310.358 269.227C306.981 273.257 298.615 279.325 288.473 285.895C284.7 288.336 280.683 290.852 276.586 293.353C266.808 299.323 256.571 305.237 248.124 310.016C237.134 316.233 229.169 320.526 229.169 320.526C229.169 320.526 228.484 316.745 227.379 311.906C225.901 305.431 223.674 297.06 221.352 293.353C221.271 293.224 221.19 293.105 221.109 292.986C220.433 292.008 219.752 291.438 219.081 291.438L252.627 268.548L267.124 258.653L256.68 231.208L243.58 196.781L251.487 169.087L259.434 141.25H274.327C274.327 141.25 279.259 153.099 285.565 169.623C286.507 172.094 287.481 174.669 288.473 177.329C301.446 212.064 317.62 260.568 310.358 269.227Z" fill="#D0CDE1"/>
<path d="M196.984 333.745C188.698 345.039 154.494 321.379 142.53 312.557C139.925 310.636 138.374 309.42 138.374 309.42L149.319 293.353L152.785 288.267C152.785 288.267 155.887 290.078 160.471 293.026C160.638 293.135 160.805 293.244 160.976 293.353C164.929 295.909 169.892 299.248 174.9 302.975C181.811 308.12 188.798 313.991 193.301 319.518C197.705 324.922 199.729 329.998 196.984 333.745Z" fill="#A0616A"/>
<path d="M160.471 293.026C159.248 293.021 158.026 293.13 156.82 293.353C146.456 295.313 143.4 305.639 142.53 312.557C142.252 314.669 142.146 316.805 142.215 318.938L133.059 311.187L129.724 308.364C121.695 305.282 114.542 299.809 108.339 293.353C102.958 287.654 98.1313 281.353 93.9368 274.552C89.7589 267.849 86.0345 260.817 82.7936 253.512C81.8894 251.474 81.4033 249.242 81.3698 246.974C81.3363 244.706 81.7562 242.457 82.5998 240.388L93.9368 212.575L110.507 171.925C110.629 170.958 110.763 170.012 110.908 169.087C114.195 148.345 122.998 139.136 122.998 139.136H129.724L134.222 169.087L139.812 206.298L135.895 220.361L126.843 252.838L135.494 263.179L160.471 293.026Z" fill="#D0CDE1"/>
<path d="M168.083 206.328L173.833 213.712C175.969 213.263 178.199 212.736 180.497 212.145L178.846 206.328L182.883 211.513C207.224 204.923 237.394 192.111 237.394 192.111C237.394 192.111 204.822 194.74 180.503 188.891C169.742 186.303 158.671 192.175 154.256 203.282C151.689 209.738 152.092 215.332 161.195 215.332C164.271 215.274 167.338 214.956 170.369 214.382L168.083 206.328Z" fill="#6C63FF"/>
<path d="M299.156 327.691V330.703C299.157 331.53 299.018 332.349 298.746 333.12C298.625 333.463 298.478 333.795 298.308 334.112C297.771 335.105 297.009 335.927 296.096 336.497C295.183 337.068 294.152 337.368 293.102 337.367H91.8092C90.7595 337.368 89.7277 337.068 88.815 336.497C87.9023 335.927 87.1399 335.105 86.6027 334.112C86.4328 333.795 86.2865 333.463 86.1655 333.12C85.8929 332.349 85.7537 331.53 85.7553 330.703V327.691C85.755 326.816 85.9115 325.949 86.2157 325.14C86.5198 324.332 86.9657 323.597 87.5279 322.978C88.0901 322.359 88.7576 321.868 89.4922 321.534C90.2268 321.199 91.0141 321.027 91.8092 321.027H103.412V319.623C103.412 319.586 103.419 319.55 103.431 319.516C103.444 319.482 103.462 319.452 103.486 319.426C103.509 319.4 103.537 319.38 103.568 319.366C103.598 319.352 103.631 319.345 103.664 319.345H109.718C109.752 319.345 109.784 319.352 109.815 319.366C109.846 319.38 109.874 319.4 109.897 319.426C109.92 319.452 109.939 319.482 109.952 319.516C109.964 319.55 109.971 319.586 109.971 319.623V321.027H113.753V319.623C113.753 319.586 113.759 319.55 113.772 319.516C113.785 319.482 113.803 319.452 113.827 319.426C113.85 319.4 113.878 319.38 113.909 319.366C113.939 319.352 113.972 319.345 114.005 319.345H120.059C120.092 319.345 120.125 319.352 120.156 319.366C120.186 319.38 120.214 319.4 120.238 319.426C120.261 319.452 120.28 319.482 120.292 319.516C120.305 319.55 120.312 319.586 120.312 319.623V321.027H124.098V319.623C124.098 319.586 124.104 319.55 124.117 319.516C124.13 319.482 124.148 319.452 124.172 319.426C124.195 319.4 124.223 319.38 124.254 319.366C124.284 319.352 124.317 319.345 124.35 319.345H130.404C130.438 319.345 130.47 319.352 130.501 319.366C130.532 319.38 130.56 319.4 130.583 319.426C130.606 319.452 130.625 319.482 130.638 319.516C130.65 319.55 130.657 319.586 130.657 319.623V321.027H134.439V319.623C134.439 319.586 134.445 319.55 134.458 319.516C134.471 319.482 134.489 319.452 134.513 319.426C134.536 319.4 134.564 319.38 134.595 319.366C134.625 319.352 134.658 319.345 134.691 319.345H140.745C140.778 319.345 140.811 319.352 140.842 319.366C140.872 319.38 140.9 319.4 140.924 319.426C140.947 319.452 140.966 319.482 140.978 319.516C140.991 319.55 140.998 319.586 140.998 319.623V321.027H144.78V319.623C144.779 319.586 144.786 319.55 144.799 319.516C144.811 319.482 144.83 319.452 144.853 319.426C144.877 319.4 144.905 319.38 144.935 319.366C144.966 319.352 144.999 319.345 145.032 319.345H151.086C151.119 319.345 151.152 319.352 151.183 319.366C151.213 319.38 151.241 319.4 151.264 319.426C151.288 319.452 151.307 319.482 151.319 319.516C151.332 319.55 151.338 319.586 151.338 319.623V321.027H155.125V319.623C155.125 319.586 155.131 319.55 155.144 319.516C155.157 319.482 155.175 319.452 155.199 319.426C155.222 319.4 155.25 319.38 155.281 319.366C155.311 319.352 155.344 319.345 155.377 319.345H161.431C161.464 319.345 161.497 319.352 161.528 319.366C161.558 319.38 161.586 319.4 161.61 319.426C161.633 319.452 161.652 319.482 161.664 319.516C161.677 319.55 161.684 319.586 161.684 319.623V321.027H165.466V319.623C165.465 319.586 165.472 319.55 165.485 319.516C165.497 319.482 165.516 319.452 165.539 319.426C165.563 319.4 165.591 319.38 165.621 319.366C165.652 319.352 165.685 319.345 165.718 319.345H213.139C213.172 319.345 213.205 319.352 213.236 319.366C213.267 319.38 213.295 319.4 213.318 319.426C213.341 319.452 213.36 319.482 213.373 319.516C213.385 319.55 213.392 319.586 213.392 319.623V321.027H217.178V319.623C217.178 319.586 217.185 319.55 217.197 319.516C217.21 319.482 217.229 319.452 217.252 319.426C217.276 319.4 217.303 319.38 217.334 319.366C217.365 319.352 217.398 319.345 217.431 319.345H223.485C223.551 319.345 223.615 319.375 223.662 319.427C223.71 319.479 223.736 319.549 223.737 319.623V321.027H227.519V319.623C227.519 319.586 227.525 319.55 227.538 319.516C227.551 319.482 227.569 319.452 227.593 319.426C227.616 319.4 227.644 319.38 227.675 319.366C227.705 319.352 227.738 319.345 227.771 319.345H233.825C233.859 319.345 233.891 319.352 233.922 319.366C233.953 319.38 233.981 319.4 234.004 319.426C234.027 319.452 234.046 319.482 234.059 319.516C234.071 319.55 234.078 319.586 234.078 319.623V321.027H237.86V319.623C237.86 319.586 237.866 319.55 237.879 319.516C237.892 319.482 237.91 319.452 237.934 319.426C237.957 319.4 237.985 319.38 238.016 319.366C238.046 319.352 238.079 319.345 238.112 319.345H244.166C244.199 319.345 244.232 319.352 244.263 319.366C244.293 319.38 244.321 319.4 244.345 319.426C244.368 319.452 244.387 319.482 244.399 319.516C244.412 319.55 244.419 319.586 244.419 319.623V321.027H248.205V319.623C248.205 319.586 248.211 319.55 248.224 319.516C248.237 319.482 248.255 319.452 248.279 319.426C248.302 319.4 248.33 319.38 248.361 319.366C248.391 319.352 248.424 319.345 248.457 319.345H254.511C254.578 319.346 254.641 319.375 254.687 319.427C254.734 319.479 254.76 319.55 254.759 319.623V321.027H258.546V319.623C258.546 319.586 258.552 319.55 258.565 319.516C258.578 319.482 258.596 319.452 258.62 319.426C258.643 319.4 258.671 319.38 258.702 319.366C258.732 319.352 258.765 319.345 258.798 319.345H264.852C264.885 319.345 264.918 319.352 264.949 319.366C264.979 319.38 265.007 319.4 265.031 319.426C265.054 319.452 265.073 319.482 265.085 319.516C265.098 319.55 265.105 319.586 265.105 319.623V321.027H268.887V319.623C268.886 319.586 268.893 319.55 268.906 319.516C268.918 319.482 268.937 319.452 268.96 319.426C268.984 319.4 269.012 319.38 269.042 319.366C269.073 319.352 269.106 319.345 269.139 319.345H275.193C275.226 319.345 275.259 319.352 275.29 319.366C275.32 319.38 275.348 319.4 275.371 319.426C275.395 319.452 275.414 319.482 275.426 319.516C275.439 319.55 275.445 319.586 275.445 319.623V321.027H293.102C293.897 321.027 294.684 321.199 295.419 321.534C296.154 321.868 296.821 322.359 297.383 322.978C297.945 323.597 298.391 324.332 298.696 325.14C299 325.949 299.156 326.816 299.156 327.691V327.691Z" fill="#3F3D56"/>
<path d="M357.689 333.12H27.2719V334.112H357.689V333.12Z" fill="#3F3D56"/>
<path d="M282.948 200.845H207.92V199.143H173.899V200.845H98.562C97.216 200.845 95.9252 201.433 94.9734 202.481C94.0216 203.529 93.4869 204.95 93.4869 206.431V319.524C93.4869 321.005 94.0216 322.426 94.9734 323.474C95.9251 324.522 97.216 325.11 98.562 325.11H282.948C284.294 325.11 285.585 324.522 286.537 323.474C287.488 322.426 288.023 321.005 288.023 319.524V206.431C288.023 205.698 287.892 204.971 287.637 204.294C287.382 203.616 287.008 203 286.537 202.481C286.065 201.962 285.506 201.551 284.89 201.27C284.274 200.989 283.615 200.845 282.948 200.845V200.845Z" fill="#3F3D56"/>
<path d="M190.903 252.733C197.127 252.733 202.172 247.179 202.172 240.328C202.172 233.477 197.127 227.923 190.903 227.923C184.679 227.923 179.633 233.477 179.633 240.328C179.633 247.179 184.679 252.733 190.903 252.733Z" stroke="#D0CDE1" stroke-width="2" stroke-miterlimit="10"/>
<path d="M187.297 257.199C193.52 257.199 198.566 251.645 198.566 244.794C198.566 237.943 193.52 232.389 187.297 232.389C181.073 232.389 176.027 237.943 176.027 244.794C176.027 251.645 181.073 257.199 187.297 257.199Z" fill="#D0CDE1"/>
<path d="M48.8846 328.106H36.2629V342H48.8846V328.106Z" fill="#D0CDE1"/>
<path d="M41.2233 317.19V334.061H56.5496V317.19H41.2233ZM55.8824 333.326H41.8859V317.924H55.8824V333.326Z" fill="#3F3D56"/>
<path d="M340.986 328.106H328.364V342H340.986V328.106Z" fill="#D0CDE1"/>
<path d="M333.325 317.19V334.061H348.651V317.19H333.325ZM347.984 333.326H333.987V317.924H347.984V333.326Z" fill="#3F3D56"/>
<path d="M42.6342 114.185C62.3864 114.185 78.3988 96.5584 78.3988 74.8152C78.3988 53.0719 62.3864 35.4456 42.6342 35.4456C22.882 35.4456 6.86963 53.0719 6.86963 74.8152C6.86963 96.5584 22.882 114.185 42.6342 114.185Z" fill="#6C63FF"/>
<path d="M55.0977 28.0309C51.8594 27.5776 48.582 27.5776 45.3437 28.0309C38.1293 29.0737 31.3381 32.3727 25.7758 37.5366C20.2136 42.7006 16.1138 49.5126 13.963 57.1644C12.9848 60.6516 12.4309 64.2661 12.3157 67.9135C12.2994 68.4206 12.2886 68.9336 12.2886 69.4466C12.2986 80.5175 16.2983 91.1317 23.4097 98.96C30.5212 106.788 40.1636 111.191 50.2207 111.202C51.0281 111.202 51.8355 111.172 52.6321 111.119C54.502 110.99 56.3604 110.706 58.1919 110.272C66.9377 108.201 74.7376 102.795 80.2138 95.0087C85.6901 87.222 88.4905 77.5554 88.1203 67.7163C87.7501 57.8772 84.2332 48.4987 78.1908 41.2371C72.1483 33.9755 63.9691 29.2981 55.0977 28.0309H55.0977ZM62.0934 107.85H62.088C59.0331 108.997 55.8533 109.693 52.632 109.92C51.8355 109.979 51.0281 110.009 50.2207 110.009C40.4515 109.996 31.086 105.718 24.1781 98.1141C17.2703 90.51 13.3843 80.2004 13.3723 69.4466C13.3723 68.9336 13.3832 68.4206 13.3994 67.9135C13.7719 57.4333 17.8128 47.518 24.676 40.2431C31.5392 32.9683 40.6928 28.8978 50.2207 28.8839C58.9505 28.8845 67.3967 32.2966 74.0544 38.5125C80.7121 44.7284 85.1489 53.3443 86.5744 62.8251C87.9999 72.3059 86.3214 82.036 81.838 90.2817C77.3546 98.5274 70.3576 104.753 62.0934 107.85H62.0934Z" fill="#3F3D56"/>
<path d="M50.7625 31.27H49.6787V39.6211H50.7625V31.27Z" fill="#3F3D56"/>
<path d="M26.0808 42.0299L25.3145 42.8735L30.6789 48.7787L31.4452 47.9351L26.0808 42.0299Z" fill="#3F3D56"/>
<path d="M15.5398 68.8501V70.0431H23.1262V68.8501H15.5398Z" fill="#3F3D56"/>
<path d="M25.3145 96.0197L26.0808 96.8633L31.4452 90.9582L30.6789 90.1146L25.3145 96.0197Z" fill="#3F3D56"/>
<path d="M68.9961 47.935L69.7625 48.7786L75.1269 42.8734L74.3605 42.0298L68.9961 47.935Z" fill="#3F3D56"/>
<path d="M77.3151 68.8501V70.0431H84.9015V68.8501H77.3151Z" fill="#3F3D56"/>
<path d="M69.7624 90.1147L68.9961 90.9583L74.3605 96.8634L75.1269 96.0198L69.7624 90.1147Z" fill="#3F3D56"/>
<path d="M50.7625 99.2721H49.6787V107.623H50.7625V99.2721Z" fill="#3F3D56"/>
<path d="M51.8463 67.0606C51.3773 66.6734 50.8069 66.4641 50.2206 66.4641C49.6344 66.4641 49.064 66.6734 48.595 67.0606C48.2739 67.3291 48.0096 67.671 47.8201 68.0628C47.58 68.5672 47.4762 69.1368 47.5209 69.7042C47.5655 70.2716 47.7568 70.813 48.072 71.2646C48.3873 71.7161 48.8135 72.0588 49.3001 72.2523C49.7867 72.4457 50.3134 72.4818 50.818 72.3562C51.3226 72.2306 51.784 71.9486 52.1477 71.5435C52.5114 71.1384 52.7621 70.6272 52.8702 70.0703C52.9784 69.5134 52.9394 68.934 52.758 68.4007C52.5765 67.8673 52.2602 67.4023 51.8463 67.0606H51.8463ZM50.2206 71.2362C49.7899 71.2348 49.3771 71.0458 49.0725 70.7105C48.7679 70.3752 48.5962 69.9208 48.595 69.4467C48.5971 69.0847 48.6971 68.7317 48.8822 68.4326C49.041 68.1795 49.2564 67.9757 49.5076 67.841C49.7589 67.7064 50.0375 67.6453 50.3164 67.6638C50.5953 67.6824 50.8652 67.7798 51.0999 67.9467C51.3347 68.1136 51.5263 68.3444 51.6563 68.6167C51.7863 68.889 51.8503 69.1936 51.842 69.5011C51.8338 69.8086 51.7536 70.1085 51.6092 70.3719C51.4649 70.6353 51.2612 70.8533 51.018 71.0047C50.7747 71.1561 50.5001 71.2358 50.2206 71.2362V71.2362Z" fill="#3F3D56"/>
<path d="M55.0976 17.5503H45.3436V28.2875H55.0976V17.5503Z" fill="#3F3D56"/>
<path d="M50.2206 19.3398C57.4033 19.3398 63.2259 17.0697 63.2259 14.2694C63.2259 11.4692 57.4033 9.1991 50.2206 9.1991C43.038 9.1991 37.2153 11.4692 37.2153 14.2694C37.2153 17.0697 43.038 19.3398 50.2206 19.3398Z" fill="#3F3D56"/>
<path d="M51.8463 46.7793H48.595V67.0606H51.8463V46.7793Z" fill="#3F3D56"/>
<path d="M101.875 109.385H0V110.578H101.875V109.385Z" fill="#3F3D56"/>
<path d="M67.8836 297.605C68.3042 313.459 59.8891 319.269 49.3283 319.608C49.083 319.616 48.8388 319.621 48.5957 319.623C48.106 319.627 47.621 319.618 47.1407 319.596C37.5896 319.159 30.0293 313.578 29.6381 298.834C29.2333 283.576 46.438 263.751 47.7288 262.284L47.7311 262.283C47.7801 262.227 47.8052 262.199 47.8052 262.199C47.8052 262.199 67.463 281.752 67.8836 297.605Z" fill="#D0CDE1"/>
<path d="M48.5681 317.206L55.2766 306.224L48.5818 318.387L48.5958 319.623C48.106 319.627 47.621 319.618 47.1408 319.596L47.4735 303.711L47.4644 303.589L47.4767 303.565L47.5085 302.064L40.1619 290.322L47.4999 300.941L47.5259 301.258L47.7772 289.256L41.4317 277.083L47.7953 287.148L47.7289 262.284L47.729 262.201L47.7312 262.283L48.1524 281.879L53.9356 273.919L48.1713 283.567L48.2975 294.302L53.6193 283.825L48.3171 295.88L48.3874 301.85L56.1266 287.255L48.4109 303.932L48.5681 317.206Z" fill="#3F3D56"/>
<path d="M359.985 297.605C360.406 313.459 351.99 319.269 341.43 319.608C341.184 319.616 340.94 319.621 340.697 319.623C340.207 319.627 339.722 319.618 339.242 319.596C329.691 319.159 322.131 313.578 321.739 298.834C321.335 283.576 338.539 263.751 339.83 262.284L339.832 262.283C339.881 262.227 339.907 262.199 339.907 262.199C339.907 262.199 359.564 281.752 359.985 297.605Z" fill="#D0CDE1"/>
<path d="M340.669 317.206L347.378 306.224L340.683 318.387L340.697 319.623C340.207 319.627 339.722 319.618 339.242 319.596L339.575 303.711L339.566 303.589L339.578 303.565L339.61 302.064L332.263 290.322L339.601 300.941L339.627 301.258L339.878 289.256L333.533 277.083L339.897 287.148L339.83 262.284L339.83 262.201L339.832 262.283L340.254 281.879L346.037 273.919L340.273 283.567L340.399 294.302L345.72 283.825L340.418 295.88L340.489 301.85L348.228 287.255L340.512 303.932L340.669 317.206Z" fill="#3F3D56"/>
</g>
</svg>
