<svg width="320" height="415" viewBox="0 0 320 415" fill="none" xmlns="http://www.w3.org/2000/svg">
<path d="M319 -6.0625C319 74.5373 318.293 167.462 275.815 233.111C255.852 263.962 233.79 293.261 206.556 312.99C184.875 328.696 165.076 341.061 141.008 349.214C131.845 352.318 121.821 358.551 114.753 366.63C110.079 371.972 101.23 373.017 95.1975 375.338C74.6733 383.234 51.7971 381.469 31.8231 391.012C20.4056 396.466 7.90467 397.984 -3.84772 402.506C-13.7768 406.326 -22.8426 414 -33 414" stroke="white" stroke-opacity="0.5" stroke-linecap="round" stroke-linejoin="round"/>
<path d="M221.526 -9C240.513 33.2968 236.437 88.8997 223.697 133.365C213.466 169.073 196.532 200.391 180.283 231.863C172.418 247.098 159.102 253.74 149.08 266.123C140.378 276.876 130.266 285.772 120.59 295.059C104.237 310.755 87.8469 325.793 68.3128 334.759C54.963 340.887 41.2727 348.031 27.3413 351.426C20.328 353.136 12.3191 356.51 5.54411 359.297C-4.61499 363.476 -13.145 370.279 -22.6747 374.344" stroke="white" stroke-opacity="0.5" stroke-linecap="round" stroke-linejoin="round"/>
<path d="M133.005 -7.53126C136.75 4.79796 137.209 16.2519 139.419 29.0278C140.348 34.3982 142.105 39.9392 142.671 45.3924C143.135 49.8622 144.226 54.9566 144.388 59.3197C144.802 70.4839 138.718 77.339 134.992 86.4779C130.762 96.8521 126.362 109.536 120.718 118.859C117.143 124.763 115.691 131.261 111.683 137.312C102.097 151.788 101.664 163.308 97.228 180.719C95.2269 188.574 87.798 194.825 84.0377 201.726C78.2896 212.275 72.6489 222.964 67.1433 233.759C62.4699 242.922 57.815 252.234 52.7785 261.033C46.9848 271.155 41.2833 278.961 34.3482 287.263C26.9628 296.104 11.8804 310.011 1.37235 310.011C-6.90056 310.011 -16.4761 320.122 -19.8586 328.812" stroke="white" stroke-opacity="0.5" stroke-linecap="round" stroke-linejoin="round"/>
</svg>
